<?xml version="1.0" standalone="no"?>
<!DOCTYPE svg PUBLIC "-//W3C//DTD SVG 20010904//EN"
 "http://www.w3.org/TR/2001/REC-SVG-20010904/DTD/svg10.dtd">
<svg version="1.0" xmlns="http://www.w3.org/2000/svg"
 width="512.000000pt" height="512.000000pt" viewBox="0 0 512.000000 512.000000"
 preserveAspectRatio="xMidYMid meet">

<g transform="translate(0.000000,512.000000) scale(0.100000,-0.100000)"
fill="#000000" stroke="none">
<path d="M2044 3410 c-247 -35 -418 -160 -525 -385 -123 -258 -128 -680 -10
-932 91 -193 233 -316 431 -370 91 -25 348 -25 440 0 242 65 413 247 479 512
66 263 39 600 -64 805 -120 239 -312 360 -595 374 -52 3 -123 1 -156 -4z m248
-211 c165 -35 284 -165 335 -365 14 -55 18 -113 18 -279 0 -190 -2 -218 -23
-290 -32 -109 -75 -185 -138 -245 -68 -64 -139 -97 -243 -112 -224 -33 -416
61 -502 247 -49 105 -60 164 -66 365 -4 160 -2 198 15 282 44 212 161 354 326
394 65 16 210 17 278 3z"/>
<path d="M30 3280 l0 -100 255 0 255 0 0 -725 0 -725 115 0 115 0 0 725 0 725
260 0 260 0 0 100 0 100 -630 0 -630 0 0 -100z"/>
<path d="M3250 2555 l0 -825 110 0 110 0 0 665 c0 540 2 665 13 665 8 0 86
-209 211 -567 110 -313 214 -612 234 -665 l34 -98 103 0 102 0 154 428 c84
235 192 535 239 667 61 169 91 241 103 243 15 3 16 -48 10 -667 l-6 -671 116
0 117 0 0 825 0 825 -177 0 -178 0 -234 -670 c-129 -369 -237 -670 -241 -670
-3 0 -105 300 -227 668 l-220 667 -187 3 -186 2 0 -825z"/>
</g>
</svg>
